# xmcd CD database file
#
# Track frame offsets:
#	150
#	15490
#	29015
#	41645
#	55978
#	72345
#	90308
#	102365
#	120605
#	134148
#
# Disc length: 2011 seconds
#
# Revision: 2
# Processed by: cddbd v1.4PL0 Copyright (c) Steve Scherf et al.
# Submitted via: CDex 1.40Release
#
DISCID=8a07d90a
DTITLE=Highway 101 - The New Frontier
DYEAR=1993
DGENRE=Country
TTITLE0=You Baby You
TTITLE1=Home On the Range
TTITLE2=Tell Me More
TTITLE3=No Chance
TTITLE4=Who's Gonna Love You
TTITLE5=The Last Frontier
TTITLE6=Fastest Healin' Broken Heart
TTITLE7=Love Walks
TTITLE8=You Are What You Do
TTITLE9=I Wonder Where the Love Goes
EXTD=YEAR: 1993 ID3G: 2
EXTT0=
EXTT1=
EXTT2=
EXTT3=
EXTT4=
EXTT5=
EXTT6=
EXTT7=
EXTT8=
EXTT9=
PLAYORDER=
